<svg xmlns="http://www.w3.org/2000/svg" viewBox="0 0 100 125" x="0px" y="0px"><defs><style>.cls-1{fill:none;}</style></defs><title>Asset 442</title><g data-name="Layer 2"><g data-name="Layer 1"><rect class="cls-1" width="100" height="100"/><path d="M50,28.5C27.49,28.5,3.27,24,3.27,14.25S27.49,0,50,0,96.73,4.46,96.73,14.25,72.51,28.5,50,28.5ZM50,5.09c-11.59,0-22.46,1.18-30.6,3.34-9.06,2.4-11,5-11,5.82s2,3.41,11,5.82c8.14,2.15,19,3.34,30.6,3.34s22.46-1.19,30.6-3.34c9.06-2.41,11.05-5,11.05-5.82s-2-3.42-11.05-5.82C72.46,6.27,61.59,5.09,50,5.09Z"/><path d="M50,51.9c-22.51,0-46.73-4.45-46.73-14.24V14.25a2.54,2.54,0,1,1,5.08,0V37.66c0,.8,2,3.41,11,5.81,8.14,2.16,19,3.35,30.6,3.35s22.46-1.19,30.6-3.35c9.06-2.4,11.05-5,11.05-5.81V15a2.54,2.54,0,0,1,5.08,0v22.7C96.73,47.45,72.51,51.9,50,51.9Z"/><path d="M50,76C27.49,76,3.27,71.49,3.27,61.7V38.3a2.54,2.54,0,1,1,5.08,0V61.7c0,.81,2,3.42,11,5.82,8.14,2.16,19,3.35,30.6,3.35s22.46-1.19,30.6-3.35c9.06-2.4,11.05-5,11.05-5.82V39a2.54,2.54,0,0,1,5.08,0V61.7C96.73,71.49,72.51,76,50,76Z"/><path d="M50,100C27.49,100,3.27,95.54,3.27,85.75V62.34a2.54,2.54,0,1,1,5.08,0V85.75c0,.81,2,3.42,11,5.82,8.14,2.16,19,3.34,30.6,3.34s22.46-1.18,30.6-3.34c9.06-2.4,11.05-5,11.05-5.82V63.06a2.54,2.54,0,0,1,5.08,0V85.75C96.73,95.54,72.51,100,50,100Z"/><circle cx="57.76" cy="36.71" r="2.02"/><circle cx="50" cy="36.71" r="2.02"/><circle cx="42.24" cy="36.71" r="2.02"/><circle cx="57.76" cy="60.32" r="2.02"/><circle cx="50" cy="60.32" r="2.02"/><circle cx="42.24" cy="60.32" r="2.02"/><circle cx="57.76" cy="83.93" r="2.02"/><circle cx="50" cy="83.93" r="2.02"/><circle cx="42.24" cy="83.93" r="2.02"/></g></g></svg>