<svg xmlns="http://www.w3.org/2000/svg" xmlns:xlink="http://www.w3.org/1999/xlink" version="1.1" x="0px" y="0px" viewBox="0 0 512 640" style="enable-background:new 0 0 512 512;" xml:space="preserve"><g><g><g><path d="M96,336c-0.921,0-1.838-0.127-2.725-0.378C54.293,324.583,26,284.294,26,239.824c0-42.272,28.126-79.369,67.933-91.092     c3.144-40.106,36.681-71.776,77.452-71.776c7.803,0,15.438,1.148,22.795,3.422c8.941-14.949,21.261-27.643,36.022-37.038     C248.024,31.996,268.648,26,289.846,26c61.503,0,111.539,50.203,111.539,111.912c0,2.479-0.086,4.978-0.257,7.485     C448.739,150.306,486,190.781,486,239.824c0,24.125-8.587,47.204-24.178,64.982c-15.823,18.043-37.492,29.027-61.016,30.932     c-0.266,0.021-0.532,0.032-0.799,0.032l-304,0.23C96.005,336,96.003,336,96,336z M171.385,96.956     c-31.812,0-57.692,25.993-57.692,57.941c0,0.261,0.011,0.519,0.019,0.777l0.021,0.676c0.117,4.845-3.257,9.076-8.006,10.042     C71.118,173.424,46,204.307,46,239.824c0,35.205,21.555,66.996,51.438,76.175l302.141-0.229     C437.475,312.5,466,279.921,466,239.824c0-41.315-33.473-74.927-74.615-74.927c-0.166,0-0.33,0.008-0.495,0.014     c-0.256,0.009-0.513,0.017-0.771,0.021c-0.058,0.001-0.115,0.001-0.172,0.001c-2.908,0-5.677-1.267-7.578-3.475     c-1.938-2.252-2.775-5.249-2.284-8.179c0.862-5.143,1.3-10.313,1.3-15.368c0-50.68-41.064-91.912-91.539-91.912     c-35.052,0-66.5,19.62-82.072,51.203c-2.375,4.816-8.132,6.896-13.038,4.713C187.345,98.625,179.488,96.956,171.385,96.956z"/></g><g><path d="M160,406H90c-5.523,0-10-4.478-10-10s4.477-10,10-10h60v-90c0-5.522,4.477-10,10-10c5.522,0,10,4.478,10,10v100     C170,401.522,165.522,406,160,406z"/></g><g><path d="M280,466h-60c-5.523,0-10-4.478-10-10V296c0-5.522,4.477-10,10-10c5.522,0,10,4.478,10,10v150h50c5.522,0,10,4.478,10,10     S285.522,466,280,466z"/></g><g><path d="M320,386h-30c-5.522,0-10-4.478-10-10s4.478-10,10-10h20v-70c0-5.522,4.478-10,10-10s10,4.478,10,10v80     C330,381.522,325.522,386,320,386z"/></g><g><path d="M390,446h-30c-5.522,0-10-4.478-10-10V296c0-5.522,4.478-10,10-10s10,4.478,10,10v130h20c5.522,0,10,4.478,10,10     S395.522,446,390,446z"/></g><g><path d="M180,466h-80c-5.523,0-10-4.478-10-10s4.477-10,10-10h70v-30c0-5.522,4.477-10,10-10c5.522,0,10,4.478,10,10v40     C190,461.522,185.522,466,180,466z"/></g><g><path d="M420,466c-16.542,0-30-13.458-30-30s13.458-30,30-30s30,13.458,30,30S436.542,466,420,466z M420,426     c-5.514,0-10,4.486-10,10s4.486,10,10,10s10-4.486,10-10S425.514,426,420,426z"/></g><g><path d="M300,486c-16.542,0-30-13.458-30-30s13.458-30,30-30s30,13.458,30,30S316.542,486,300,486z M300,446     c-5.514,0-10,4.486-10,10s4.486,10,10,10s10-4.486,10-10S305.514,446,300,446z"/></g><g><path d="M70,426c-16.542,0-30-13.458-30-30s13.458-30,30-30s30,13.458,30,30S86.542,426,70,426z M70,386c-5.515,0-10,4.486-10,10     s4.485,10,10,10c5.514,0,10-4.486,10-10S75.514,386,70,386z"/></g><g><path d="M270,406c-16.542,0-30-13.458-30-30s13.458-30,30-30s30,13.458,30,30S286.542,406,270,406z M270,366     c-5.515,0-10.001,4.486-10.001,10s4.486,10,10.001,10c5.514,0,10-4.486,10-10S275.514,366,270,366z"/></g><g><path d="M380,256c-5.522,0-10-4.477-10-10v-20c0-5.523,4.478-10,10-10s10,4.477,10,10v20C390,251.523,385.522,256,380,256z"/></g><g><path d="M340,256c-5.522,0-10-4.477-10-10v-20c0-5.523,4.478-10,10-10s10,4.477,10,10v20C350,251.523,345.522,256,340,256z"/></g><g><path d="M300,256c-5.522,0-10-4.477-10-10v-20c0-5.523,4.478-10,10-10s10,4.477,10,10v20C310,251.523,305.522,256,300,256z"/></g><g><path d="M260,256c-5.522,0-10-4.477-10-10v-20c0-5.523,4.478-10,10-10s10,4.477,10,10v20C270,251.523,265.522,256,260,256z"/></g><g><path d="M220,256c-5.523,0-10-4.477-10-10v-20c0-5.523,4.477-10,10-10c5.522,0,10,4.477,10,10v20     C230,251.523,225.522,256,220,256z"/></g><g><path d="M180,256c-5.523,0-10-4.477-10-10v-20c0-5.523,4.477-10,10-10c5.522,0,10,4.477,10,10v20     C190,251.523,185.522,256,180,256z"/></g><g><path d="M140,256c-5.523,0-10-4.477-10-10v-20c0-5.523,4.477-10,10-10c5.522,0,10,4.477,10,10v20     C150,251.523,145.522,256,140,256z"/></g></g></g></svg>