<svg xmlns="http://www.w3.org/2000/svg" xmlns:xlink="http://www.w3.org/1999/xlink" version="1.1" x="0px" y="0px" viewBox="0 0 95 118.75" enable-background="new 0 0 95 95" xml:space="preserve"><circle cx="47.5" cy="14.837" r="9.378"/><path d="M35.696,30.53c0,4.581,5.285,4.479,11.804,4.479s11.804,0.103,11.804-4.479c0-2.771-1.935-5.223-4.905-6.729  c-1.911,1.475-4.304,2.354-6.898,2.354c-2.595,0-4.988-0.88-6.899-2.354C37.631,25.308,35.696,27.76,35.696,30.53z"/><path d="M19.85,58.495v10.188c0,0.938,0.76,1.697,1.698,1.697c0.938,0,1.698-0.76,1.698-1.697V58.495  c0-1.738,1.415-3.152,3.153-3.152h19.404v13.34c0,0.938,0.76,1.697,1.698,1.697s1.697-0.76,1.697-1.697v-13.34h19.404  c1.738,0,3.153,1.414,3.153,3.152v10.188c0,0.938,0.76,1.697,1.698,1.697s1.698-0.76,1.698-1.697V58.495  c0-3.61-2.938-6.549-6.549-6.549H49.197V39.819c0-0.938-0.76-1.697-1.697-1.697s-1.698,0.76-1.698,1.697v12.127H26.398  C22.788,51.946,19.85,54.885,19.85,58.495z"/><path d="M65.57,76.144v10.914c0,1.334,1.091,2.426,2.425,2.426h10.915c1.334,0,2.426-1.092,2.426-2.426V76.144  c0-1.334-1.092-2.426-2.426-2.426H67.995C66.661,73.718,65.57,74.81,65.57,76.144z"/><path d="M42.042,73.718c-1.334,0-2.425,1.092-2.425,2.426v10.914c0,1.334,1.091,2.426,2.425,2.426h10.915  c1.334,0,2.426-1.092,2.426-2.426V76.144c0-1.334-1.092-2.426-2.426-2.426H42.042z"/><path d="M13.665,76.144v10.914c0,1.334,1.091,2.426,2.425,2.426h10.915c1.334,0,2.426-1.092,2.426-2.426V76.144  c0-1.334-1.092-2.426-2.426-2.426H16.09C14.756,73.718,13.665,74.81,13.665,76.144z"/></svg>