<svg xmlns="http://www.w3.org/2000/svg" xmlns:xlink="http://www.w3.org/1999/xlink" version="1.1" x="0px" y="0px" viewBox="0 0 64 80" style="enable-background:new 0 0 64 64;" xml:space="preserve"><g><path d="M62,1H2C1.448,1,1,1.448,1,2v60c0,0.552,0.448,1,1,1h60c0.552,0,1-0.448,1-1V2C63,1.448,62.552,1,62,1z M61,3v6H3V3H61z    M43,61V16c0-0.552-0.448-1-1-1s-1,0.448-1,1v45H3V11h38v1c0,0.552,0.448,1,1,1s1-0.448,1-1v-1h18v50H43z"/><circle cx="6" cy="6" r="1"/><circle cx="10" cy="6" r="1"/><circle cx="14" cy="6" r="1"/><path d="M38,27h-3.051C34.436,20.299,28.831,15,22,15S9.564,20.299,9.051,27H6c-0.552,0-1,0.448-1,1v28c0,0.552,0.448,1,1,1h32   c0.552,0,1-0.448,1-1V28C39,27.448,38.552,27,38,27z M22,17c6.065,0,11,4.935,11,11s-4.935,11-11,11s-11-4.935-11-11   S15.935,17,22,17z M9.051,29C9.564,35.701,15.169,41,22,41s12.436-5.299,12.949-12H37v14H7V29H9.051z M7,55V45h30v10H7z"/><path d="M17.474,33.851C17.635,33.95,17.817,34,18,34c0.153,0,0.306-0.035,0.447-0.105l10-5C28.786,28.725,29,28.379,29,28   s-0.214-0.725-0.553-0.895l-10-5c-0.31-0.154-0.678-0.138-0.973,0.044C17.18,22.332,17,22.653,17,23v10   C17,33.347,17.18,33.668,17.474,33.851z M19,24.618L25.764,28L19,31.382V24.618z"/><path d="M34,49h-9c-0.061,0-0.115,0.024-0.173,0.035C24.422,47.856,23.315,47,22,47s-2.422,0.856-2.827,2.035   C19.115,49.024,19.062,49,19,49h-9c-0.552,0-1,0.448-1,1s0.448,1,1,1h9c0.062,0,0.115-0.024,0.173-0.035   C19.578,52.144,20.685,53,22,53s2.422-0.856,2.827-2.035C24.885,50.976,24.938,51,25,51h9c0.552,0,1-0.448,1-1S34.552,49,34,49z    M22,51c-0.551,0-1-0.449-1-1s0.449-1,1-1s1,0.449,1,1S22.551,51,22,51z"/><path d="M48,23h8c0.552,0,1-0.448,1-1v-8c0-0.552-0.448-1-1-1h-8c-0.552,0-1,0.448-1,1v8C47,22.552,47.448,23,48,23z M49,15h6v6h-6   V15z"/><path d="M46,27h8c0.552,0,1-0.448,1-1s-0.448-1-1-1h-8c-0.552,0-1,0.448-1,1S45.448,27,46,27z"/><circle cx="58" cy="26" r="1"/><path d="M56,29h-8c-0.552,0-1,0.448-1,1v8c0,0.552,0.448,1,1,1h8c0.552,0,1-0.448,1-1v-8C57,29.448,56.552,29,56,29z M55,37h-6v-6   h6V37z"/><path d="M46,43h8c0.552,0,1-0.448,1-1s-0.448-1-1-1h-8c-0.552,0-1,0.448-1,1S45.448,43,46,43z"/><circle cx="58" cy="42" r="1"/><path d="M57,46c0-0.552-0.448-1-1-1h-8c-0.552,0-1,0.448-1,1v8c0,0.552,0.448,1,1,1h8c0.552,0,1-0.448,1-1V46z M55,53h-6v-6h6V53z"/><path d="M54,57h-8c-0.552,0-1,0.448-1,1s0.448,1,1,1h8c0.552,0,1-0.448,1-1S54.552,57,54,57z"/><circle cx="58" cy="58" r="1"/></g></svg>