<svg xmlns:dc="http://purl.org/dc/elements/1.1/" xmlns:cc="http://creativecommons.org/ns#" xmlns:rdf="http://www.w3.org/1999/02/22-rdf-syntax-ns#" xmlns:svg="http://www.w3.org/2000/svg" xmlns="http://www.w3.org/2000/svg" xmlns:sodipodi="http://sodipodi.sourceforge.net/DTD/sodipodi-0.dtd" xmlns:inkscape="http://www.inkscape.org/namespaces/inkscape" fill="#000000" version="1.1" x="0px" y="0px" viewBox="0 0 100 125"><path style="font-size:medium;font-style:normal;font-variant:normal;font-weight:normal;font-stretch:normal;text-indent:0;text-align:start;text-decoration:none;line-height:normal;letter-spacing:normal;word-spacing:normal;text-transform:none;direction:ltr;block-progression:tb;writing-mode:lr-tb;text-anchor:start;baseline-shift:baseline;opacity:1;color:#000000;fill:#000000;fill-opacity:1;stroke:none;stroke-width:3.99999951999999980;marker:none;visibility:visible;display:inline;overflow:visible;enable-background:accumulate;font-family:Sans;-inkscape-font-specification:Sans" d="M 11.53125 11 C 8.4988304 11 6 13.499027 6 16.53125 L 6 66.0625 C 6 69.094723 8.4988298 71.59375 11.53125 71.59375 L 59.625 71.59375 A 2.0001998 2.0001998 0 1 0 59.625 67.59375 L 11.53125 67.59375 C 10.647884 67.59375 10 66.950151 10 66.0625 L 10 16.53125 C 10 15.643597 10.647883 15 11.53125 15 L 78.6875 15 C 79.570867 15 80.21875 15.643597 80.21875 16.53125 L 80.21875 52.84375 C 79.493012 52.744046 78.822484 52.672964 78.1875 52.65625 L 78.1875 48.625 C 78.1875 47.287162 77.655577 46.056531 76.8125 45.125 A 2.0001998 2.0001998 0 0 0 75.15625 41.96875 L 57.46875 41.96875 A 2.0001998 2.0001998 0 0 0 57.28125 41.96875 A 2.0021961 2.0021961 0 1 0 57.46875 45.96875 L 68.375 45.96875 C 67.982057 46.622542 67.729174 47.361746 67.65625 48.15625 L 57.46875 48.15625 A 2.0001998 2.0001998 0 0 0 57.28125 48.15625 A 2.0021961 2.0021961 0 1 0 57.46875 52.15625 L 67.625 52.15625 L 67.625 54.34375 L 57.46875 54.34375 A 2.0001998 2.0001998 0 0 0 57.28125 54.34375 A 2.0021961 2.0021961 0 1 0 57.46875 58.34375 L 59.71875 58.34375 C 59.533944 59.111197 59.530742 59.927349 59.6875 60.625 C 59.997025 62.00254 60.692709 63.216574 61.53125 64.5625 C 63.208331 67.254352 65.593796 70.373156 67.65625 74.0625 C 68.349681 75.302925 69.12939 76.375563 69.96875 77.3125 L 69.96875 83.5625 C 69.96875 84.71271 70.579318 85.679575 71.28125 86.34375 C 71.983182 87.007925 72.804703 87.467183 73.75 87.84375 C 75.640593 88.596884 78.013674 89 80.625 89 C 83.236321 89 85.60663 88.596261 87.5 87.84375 C 88.446685 87.467494 89.265302 87.007311 89.96875 86.34375 C 90.672198 85.680189 91.28125 84.715213 91.28125 83.5625 L 91.28125 77.15625 C 92.976315 74.976714 94 72.268596 94 69.3125 L 94 61.5625 C 94 59.499206 92.672648 57.953292 91.1875 56.84375 C 89.702352 55.734208 87.88488 54.903969 86 54.25 C 85.406179 54.043971 84.816778 53.85642 84.21875 53.6875 L 84.21875 16.53125 C 84.21875 13.499027 81.719919 11 78.6875 11 L 11.53125 11 z M 62.78125 17.4375 C 61.805335 17.4375 61 18.210565 61 19.1875 C 61 20.164435 61.805335 20.96875 62.78125 20.96875 C 63.757165 20.96875 64.53125 20.164435 64.53125 19.1875 C 64.53125 18.210565 63.757165 17.4375 62.78125 17.4375 z M 68.96875 17.4375 C 67.992835 17.4375 67.1875 18.210565 67.1875 19.1875 C 67.1875 20.164435 67.992835 20.96875 68.96875 20.96875 C 69.944665 20.96875 70.71875 20.164435 70.71875 19.1875 C 70.71875 18.210565 69.944665 17.4375 68.96875 17.4375 z M 75.15625 17.4375 C 74.180335 17.4375 73.375 18.210565 73.375 19.1875 C 73.375 20.164435 74.180335 20.96875 75.15625 20.96875 C 76.132165 20.96875 76.90625 20.164435 76.90625 19.1875 C 76.90625 18.210565 76.132165 17.4375 75.15625 17.4375 z M 14.875 24.28125 A 2.0001998 2.0001998 0 0 0 13.0625 26.28125 L 13.0625 56.34375 A 2.0001998 2.0001998 0 0 0 15.0625 58.34375 L 50.40625 58.34375 A 2.0001998 2.0001998 0 0 0 52.40625 56.34375 L 52.40625 26.28125 A 2.0001998 2.0001998 0 0 0 50.40625 24.28125 L 15.0625 24.28125 A 2.0001998 2.0001998 0 0 0 14.875 24.28125 z M 57.3125 24.28125 A 2.0001998 2.0001998 0 0 0 55.46875 26.28125 L 55.46875 37.75 A 2.0001998 2.0001998 0 0 0 57.46875 39.75 L 75.15625 39.75 A 2.0001998 2.0001998 0 0 0 77.15625 37.75 L 77.15625 26.28125 A 2.0001998 2.0001998 0 0 0 75.34375 24.28125 A 2.0001998 2.0001998 0 0 0 75.15625 24.28125 L 57.46875 24.28125 A 2.0001998 2.0001998 0 0 0 57.3125 24.28125 z M 17.0625 28.28125 L 48.40625 28.28125 L 48.40625 54.34375 L 17.0625 54.34375 L 17.0625 28.28125 z M 59.46875 28.28125 L 73.15625 28.28125 L 73.15625 35.75 L 59.46875 35.75 L 59.46875 28.28125 z M 72.90625 47.375 C 73.679637 47.375 74.1875 47.921655 74.1875 48.625 L 74.1875 57.09375 A 2.0001998 2.0001998 0 1 0 78.1875 57.09375 L 78.1875 56.78125 C 78.690442 56.76511 78.979605 56.71595 79.875 56.84375 C 81.317455 57.049637 83.063512 57.467799 84.6875 58.03125 C 86.311488 58.594701 87.813359 59.308146 88.78125 60.03125 C 89.749141 60.754354 90 61.328007 90 61.5625 L 90 69.3125 C 90 74.281278 85.933121 78.28125 80.8125 78.28125 C 77.324096 78.28125 73.828708 76.874306 71.15625 72.09375 C 68.92115 68.095574 66.397257 64.861938 64.90625 62.46875 C 64.160746 61.272156 63.712987 60.280662 63.59375 59.75 C 63.474513 59.219338 63.453779 59.386868 63.625 59.21875 C 63.818051 59.02921 63.854649 59.032202 64.09375 59.03125 C 64.301574 59.030419 65.374758 59.400957 66.46875 60.15625 C 67.562742 60.911543 68.733711 61.931391 69.625 62.75 A 2.002257 2.002257 0 1 0 72.3125 59.78125 C 72.130826 59.61439 71.828795 59.401481 71.625 59.21875 L 71.625 48.625 C 71.625 47.915074 72.145623 47.375 72.90625 47.375 z M 73.96875 80.53125 C 76.179404 81.741672 78.55285 82.28125 80.8125 82.28125 C 83.157622 82.28125 85.366099 81.659165 87.28125 80.59375 L 87.28125 83.40625 C 87.270233 83.412474 87.271771 83.387485 87.21875 83.4375 C 87.046431 83.600048 86.62067 83.878317 86 84.125 C 84.75866 84.618365 82.809666 85 80.625 85 C 78.440327 85 76.455681 84.617742 75.21875 84.125 C 74.600284 83.878629 74.20239 83.599434 74.03125 83.4375 C 73.978592 83.387674 73.979747 83.412208 73.96875 83.40625 L 73.96875 80.53125 z "/></svg>