<?xml version="1.0" standalone="no"?>
<!DOCTYPE svg PUBLIC "-//W3C//DTD SVG 20010904//EN"
 "http://www.w3.org/TR/2001/REC-SVG-20010904/DTD/svg10.dtd">
<svg version="1.0" xmlns="http://www.w3.org/2000/svg"
 width="391.000000pt" height="391.000000pt" viewBox="0 0 391.000000 391.000000"
 preserveAspectRatio="xMidYMid meet">
<metadata>
Created by potrace 1.11, written by Peter Selinger 2001-2013
</metadata>
<g transform="translate(0.000000,391.000000) scale(0.100000,-0.100000)"
fill="#000000" stroke="none">
<path d="M831 3069 c-407 -408 -739 -744 -737 -748 4 -6 209 -141 389 -256 34
-21 132 -85 217 -140 85 -56 197 -128 248 -160 50 -33 161 -105 245 -160 85
-55 178 -116 208 -135 118 -75 345 -223 369 -239 71 -50 26 -85 505 394 240
240 435 440 433 444 -2 4 -79 125 -173 269 -93 144 -197 304 -230 355 -33 51
-145 225 -250 385 -104 161 -201 310 -215 332 -125 198 -256 399 -261 399 -4
1 -340 -332 -748 -740z m740 69 c29 -46 98 -153 154 -238 237 -364 391 -601
400 -618 6 -9 32 -50 58 -90 41 -63 46 -76 35 -90 -20 -24 -429 -432 -433
-432 -4 0 -110 68 -320 205 -92 60 -629 408 -723 468 -60 39 -62 41 -45 60 26
28 815 817 818 817 1 0 26 -37 56 -82z"/>
<path d="M2797 1862 c-47 -21 -731 -702 -758 -754 -57 -110 17 -247 143 -264
91 -13 94 -11 486 379 392 391 400 401 390 492 -14 124 -147 199 -261 147z"/>
<path d="M2932 1180 c-27 -12 -52 -64 -45 -100 14 -78 124 -101 167 -35 52 80
-31 171 -122 135z"/>
<path d="M2582 812 c-34 -5 -63 -59 -57 -102 7 -46 33 -70 81 -76 55 -7 96 27
99 81 5 73 -42 109 -123 97z"/>
<path d="M3324 805 c-58 -24 -70 -96 -25 -144 37 -40 86 -42 124 -7 36 33 42
67 22 109 -23 50 -67 65 -121 42z"/>
<path d="M3704 620 c-92 -37 -54 -188 44 -175 47 6 83 42 84 84 2 75 -60 119
-128 91z"/>
<path d="M2742 230 c-51 -42 -35 -137 26 -158 84 -28 155 58 113 137 -24 44
-98 55 -139 21z"/>
<path d="M3296 219 c-35 -42 -35 -87 2 -122 41 -39 87 -42 125 -7 26 23 32 36
32 70 0 55 -37 90 -95 90 -30 0 -43 -6 -64 -31z"/>
</g>
</svg>
